# xmcd CD database file
#
# Track frame offsets:
#	150
#	16722
#	37827
#	60732
#	82057
#	108875
#	128154
#	158275
#	181697
#	210232
#	233959
#	261432
#	271777
#
# Disc length: 4134 seconds
#
# Revision: 0
# Processed by: cddbd v1.4PL0 Copyright (c) Steve Scherf et al.
# Submitted via: CDex 1.40Beta8
#
DISCID=9610240d
DTITLE=Deluxury - Shake it on Down
DYEAR=1995
DGENRE=Blues
TTITLE0=We're Havin' a Party
TTITLE1=Rockin' My Life Away
TTITLE2=Shake it on Down
TTITLE3=Highway 49
TTITLE4=Mustang Sally
TTITLE5=Rt. 66
TTITLE6=Stones Medley
TTITLE7=Born in Chicago
TTITLE8=Whiskey Drinkin' Man
TTITLE9=Maybe Someday
TTITLE10=Rainy Day Women
TTITLE11=Harp Solo
TTITLE12=Summertime
EXTD=YEAR: 1995 ID3G: 0
EXTT0=
EXTT1=
EXTT2=
EXTT3=
EXTT4=
EXTT5=
EXTT6=
EXTT7=
EXTT8=
EXTT9=
EXTT10=
EXTT11=
EXTT12=
PLAYORDER=
